<?xml version="1.0" encoding="utf-8" standalone="no"?>
<!DOCTYPE svg PUBLIC "-//W3C//DTD SVG 1.1//EN"
  "http://www.w3.org/Graphics/SVG/1.1/DTD/svg11.dtd">
<!-- Created with matplotlib (https://matplotlib.org/) -->
<svg height="216pt" version="1.1" viewBox="0 0 360 216" width="360pt" xmlns="http://www.w3.org/2000/svg" xmlns:xlink="http://www.w3.org/1999/xlink">
 <defs>
  <style type="text/css">
*{stroke-linecap:butt;stroke-linejoin:round;}
  </style>
 </defs>
 <g id="figure_1">
  <g id="patch_1">
   <path d="M 0 216 
L 360 216 
L 360 0 
L 0 0 
z
" style="fill:#ffffff;"/>
  </g>
  <g id="axes_1">
   <g id="patch_2">
    <path clip-path="url(#pb0dc3b8b6f)" d="M 35.907097 199.695484 
L 324.092903 199.695484 
L 324.092903 16.304516 
L 35.907097 16.304516 
z
" style="fill:none;"/>
   </g>
   <g id="patch_3">
    <path clip-path="url(#pb0dc3b8b6f)" d="M 35.907097 199.695484 
L 324.092903 199.695484 
L 324.092903 16.304516 
L 35.907097 16.304516 
z
" style="fill:url(#hc0c5e5b116);"/>
   </g>
   <g id="patch_4">
    <path clip-path="url(#pb0dc3b8b6f)" d="M 49.006452 186.596129 
L 310.993548 186.596129 
L 310.993548 29.403871 
L 49.006452 29.403871 
z
" style="fill:#ffffff;"/>
   </g>
   <g id="patch_5">
    <path clip-path="url(#pb0dc3b8b6f)" d="M 49.006452 186.596129 
L 310.993548 186.596129 
L 310.993548 29.403871 
L 49.006452 29.403871 
z
" style="fill:none;stroke:#000000;stroke-linejoin:miter;stroke-width:2;"/>
   </g>
   <g id="line2d_1">
    <path clip-path="url(#pb0dc3b8b6f)" d="M 245.496774 186.596129 
L 245.496774 29.403871 
" style="fill:none;stroke:#000000;stroke-linecap:square;stroke-width:2;"/>
   </g>
   <g id="text_1">
    <!-- $E_1, V_1, N_1$ -->
    <defs>
     <path d="M 16.890625 72.90625 
L 62.984375 72.90625 
L 61.375 64.59375 
L 25.09375 64.59375 
L 20.90625 43.015625 
L 55.71875 43.015625 
L 54.109375 34.71875 
L 19.28125 34.71875 
L 14.203125 8.296875 
L 51.3125 8.296875 
L 49.703125 0 
L 2.6875 0 
z
" id="DejaVuSans-Oblique-69"/>
     <path d="M 12.40625 8.296875 
L 28.515625 8.296875 
L 28.515625 63.921875 
L 10.984375 60.40625 
L 10.984375 69.390625 
L 28.421875 72.90625 
L 38.28125 72.90625 
L 38.28125 8.296875 
L 54.390625 8.296875 
L 54.390625 0 
L 12.40625 0 
z
" id="DejaVuSans-49"/>
     <path d="M 11.71875 12.40625 
L 22.015625 12.40625 
L 22.015625 4 
L 14.015625 -11.625 
L 7.71875 -11.625 
L 11.71875 4 
z
" id="DejaVuSans-44"/>
     <path d="M 20.609375 0 
L 7.8125 72.90625 
L 17.484375 72.90625 
L 28.078125 10.203125 
L 63.484375 72.90625 
L 74.21875 72.90625 
L 32.078125 0 
z
" id="DejaVuSans-Oblique-86"/>
     <path d="M 16.890625 72.90625 
L 30.171875 72.90625 
L 50.296875 10.40625 
L 62.5 72.90625 
L 72.125 72.90625 
L 57.90625 0 
L 44.578125 0 
L 24.515625 62.890625 
L 12.3125 0 
L 2.6875 0 
z
" id="DejaVuSans-Oblique-78"/>
    </defs>
    <g transform="translate(59.485935 55.602581)scale(0.16 -0.16)">
     <use transform="translate(0 0.09375)" xlink:href="#DejaVuSans-Oblique-69"/>
     <use transform="translate(63.183594 -16.3125)scale(0.7)" xlink:href="#DejaVuSans-49"/>
     <use transform="translate(110.454102 0.09375)" xlink:href="#DejaVuSans-44"/>
     <use transform="translate(161.723633 0.09375)" xlink:href="#DejaVuSans-Oblique-86"/>
     <use transform="translate(230.131836 -16.3125)scale(0.7)" xlink:href="#DejaVuSans-49"/>
     <use transform="translate(277.402344 0.09375)" xlink:href="#DejaVuSans-44"/>
     <use transform="translate(328.671875 0.09375)" xlink:href="#DejaVuSans-Oblique-78"/>
     <use transform="translate(403.476562 -16.3125)scale(0.7)" xlink:href="#DejaVuSans-49"/>
    </g>
   </g>
   <g id="text_2">
    <!-- $E_2$ -->
    <defs>
     <path d="M 19.1875 8.296875 
L 53.609375 8.296875 
L 53.609375 0 
L 7.328125 0 
L 7.328125 8.296875 
Q 12.9375 14.109375 22.625 23.890625 
Q 32.328125 33.6875 34.8125 36.53125 
Q 39.546875 41.84375 41.421875 45.53125 
Q 43.3125 49.21875 43.3125 52.78125 
Q 43.3125 58.59375 39.234375 62.25 
Q 35.15625 65.921875 28.609375 65.921875 
Q 23.96875 65.921875 18.8125 64.3125 
Q 13.671875 62.703125 7.8125 59.421875 
L 7.8125 69.390625 
Q 13.765625 71.78125 18.9375 73 
Q 24.125 74.21875 28.421875 74.21875 
Q 39.75 74.21875 46.484375 68.546875 
Q 53.21875 62.890625 53.21875 53.421875 
Q 53.21875 48.921875 51.53125 44.890625 
Q 49.859375 40.875 45.40625 35.40625 
Q 44.1875 33.984375 37.640625 27.21875 
Q 31.109375 20.453125 19.1875 8.296875 
z
" id="DejaVuSans-50"/>
    </defs>
    <g transform="translate(270.675097 52.040855)scale(0.16 -0.16)">
     <use transform="translate(0 0.09375)" xlink:href="#DejaVuSans-Oblique-69"/>
     <use transform="translate(63.183594 -16.3125)scale(0.7)" xlink:href="#DejaVuSans-50"/>
    </g>
    <!-- $V_2$ -->
    <g transform="translate(270.275097 69.957355)scale(0.16 -0.16)">
     <use transform="translate(0 0.09375)" xlink:href="#DejaVuSans-Oblique-86"/>
     <use transform="translate(68.408203 -16.3125)scale(0.7)" xlink:href="#DejaVuSans-50"/>
    </g>
    <!-- $N_2$ -->
    <g transform="translate(269.715097 87.873855)scale(0.16 -0.16)">
     <use transform="translate(0 0.09375)" xlink:href="#DejaVuSans-Oblique-78"/>
     <use transform="translate(74.804688 -16.3125)scale(0.7)" xlink:href="#DejaVuSans-50"/>
    </g>
   </g>
  </g>
 </g>
 <defs>
  <clipPath id="pb0dc3b8b6f">
   <rect height="194.4" width="338.4" x="10.8" y="10.8"/>
  </clipPath>
 </defs>
 <defs>
  <pattern height="72" id="hc0c5e5b116" patternUnits="userSpaceOnUse" width="72" x="0" y="0">
   <rect fill="none" height="73" width="73" x="0" y="0"/>
   <path d="M -36 36 
L 36 -36 
M -30 42 
L 42 -30 
M -24 48 
L 48 -24 
M -18 54 
L 54 -18 
M -12 60 
L 60 -12 
M -6 66 
L 66 -6 
M 0 72 
L 72 0 
M 6 78 
L 78 6 
M 12 84 
L 84 12 
M 18 90 
L 90 18 
M 24 96 
L 96 24 
M 30 102 
L 102 30 
M 36 108 
L 108 36 
" style="fill:#000000;stroke:#000000;stroke-linecap:butt;stroke-linejoin:miter;stroke-width:1.0;"/>
  </pattern>
 </defs>
</svg>
